{
    "asset" : {
        "generator" : "Khronos glTF Blender I/O v1.7.33",
        "version" : "2.0"
    },
    "scene" : 0,
    "scenes" : [
        {
            "name" : "Scene",
            "nodes" : [
                0
            ]
        }
    ],
    "nodes" : [
        {
            "mesh" : 0,
            "name" : "Nome 2022-03-25-22-34",
            "rotation" : [
                0.7071068286895752,
                0,
                0,
                0.7071067094802856
            ],
            "scale" : [
                0.35560762882232666,
                0.35560762882232666,
                0.35560762882232666
            ]
        }
    ],
    "materials" : [
        {
            "doubleSided" : true,
            "name" : "Default OBJ",
            "pbrMetallicRoughness" : {
                "baseColorFactor" : [
                    0.800000011920929,
                    0.800000011920929,
                    0.800000011920929,
                    1
                ],
                "metallicFactor" : 0,
                "roughnessFactor" : 0.5
            }
        }
    ],
    "meshes" : [
        {
            "name" : "Nome 2022-03-25-22-34",
            "primitives" : [
                {
                    "attributes" : {
                        "POSITION" : 0,
                        "NORMAL" : 1,
                        "TEXCOORD_0" : 2
                    },
                    "indices" : 3,
                    "material" : 0
                }
            ]
        }
    ],
    "accessors" : [
        {
            "bufferView" : 0,
            "componentType" : 5126,
            "count" : 58917,
            "max" : [
                1658.036865234375,
                758.9938354492188,
                3.655834197998047
            ],
            "min" : [
                -1535.72021484375,
                -799.626220703125,
                -83.40779113769531
            ],
            "type" : "VEC3"
        },
        {
            "bufferView" : 1,
            "componentType" : 5126,
            "count" : 58917,
            "type" : "VEC3"
        },
        {
            "bufferView" : 2,
            "componentType" : 5126,
            "count" : 58917,
            "type" : "VEC2"
        },
        {
            "bufferView" : 3,
            "componentType" : 5123,
            "count" : 59175,
            "type" : "SCALAR"
        }
    ],
    "bufferViews" : [
        {
            "buffer" : 0,
            "byteLength" : 707004,
            "byteOffset" : 0
        },
        {
            "buffer" : 0,
            "byteLength" : 707004,
            "byteOffset" : 707004
        },
        {
            "buffer" : 0,
            "byteLength" : 471336,
            "byteOffset" : 1414008
        },
        {
            "buffer" : 0,
            "byteLength" : 118350,
            "byteOffset" : 1885344
        }
    ],
    "buffers" : [
        {
            "byteLength" : 2003696,
            "uri" : "data:application/octet-stream;base64,"
        }
    ]
}
