{
    "asset" : {
        "generator" : "Khronos glTF Blender I/O v1.7.33",
        "version" : "2.0"
    },
    "scene" : 0,
    "scenes" : [
        {
            "name" : "Scene",
            "nodes" : [
                0
            ]
        }
    ],
    "nodes" : [
        {
            "mesh" : 0,
            "name" : "Esfera UV.001",
            "scale" : [
                0.42265191674232483,
                0.42265191674232483,
                0.42265191674232483
            ],
            "translation" : [
                0,
                1.483797550201416,
                0.03975972905755043
            ]
        }
    ],
    "materials" : [
        {
            "doubleSided" : true,
            "name" : "Materiais",
            "pbrMetallicRoughness" : {
                "baseColorTexture" : {
                    "index" : 0
                },
                "metallicFactor" : 0,
                "roughnessFactor" : 0.5
            }
        }
    ],
    "meshes" : [
        {
            "name" : "Esfera UV.001",
            "primitives" : [
                {
                    "attributes" : {
                        "POSITION" : 0,
                        "TEXCOORD_0" : 1
                    },
                    "indices" : 2,
                    "material" : 0
                }
            ]
        }
    ],
    "textures" : [
        {
            "sampler" : 0,
            "source" : 0
        }
    ],
    "images" : [
        {
            "bufferView" : 3,
            "mimeType" : "image/jpeg",
            "name" : "Sem t\u00edtulo.001"
        }
    ],
    "accessors" : [
        {
            "bufferView" : 0,
            "componentType" : 5126,
            "count" : 868,
            "max" : [
                14.308523178100586,
                23.128585815429688,
                14.308524131774902
            ],
            "min" : [
                -14.308521270751953,
                -1,
                -14.308520317077637
            ],
            "type" : "VEC3"
        },
        {
            "bufferView" : 1,
            "componentType" : 5126,
            "count" : 868,
            "type" : "VEC2"
        },
        {
            "bufferView" : 2,
            "componentType" : 5123,
            "count" : 3768,
            "type" : "SCALAR"
        }
    ],
    "bufferViews" : [
        {
            "buffer" : 0,
            "byteLength" : 10416,
            "byteOffset" : 0
        },
        {
            "buffer" : 0,
            "byteLength" : 6944,
            "byteOffset" : 10416
        },
        {
            "buffer" : 0,
            "byteLength" : 7536,
            "byteOffset" : 17360
        },
        {
            "buffer" : 0,
            "byteLength" : 139621,
            "byteOffset" : 24896
        }
    ],
    "samplers" : [
        {
            "magFilter" : 9729,
            "minFilter" : 9987
        }
    ],
    "buffers" : [
        {
            "byteLength" : 164520,
            "uri" : "data:application/octet-stream;base64,"
        }
    ]
}
