{
    "asset" : {
        "generator" : "Khronos glTF Blender I/O v1.7.33",
        "version" : "2.0"
    },
    "scene" : 0,
    "scenes" : [
        {
            "name" : "Scene",
            "nodes" : [
                0
            ]
        }
    ],
    "nodes" : [
        {
            "mesh" : 0,
            "name" : "Esfera UV.001",
            "scale" : [
                0.42265191674232483,
                0.42265191674232483,
                0.42265191674232483
            ],
            "translation" : [
                0.025110244750976562,
                11.126238822937012,
                -0.16836930811405182
            ]
        }
    ],
    "meshes" : [
        {
            "name" : "Esfera UV.001",
            "primitives" : [
                {
                    "attributes" : {
                        "POSITION" : 0,
                        "NORMAL" : 1,
                        "TEXCOORD_0" : 2
                    },
                    "indices" : 3
                }
            ]
        }
    ],
    "accessors" : [
        {
            "bufferView" : 0,
            "componentType" : 5126,
            "count" : 2514,
            "max" : [
                14.249112129211426,
                0.029787063598632812,
                14.806443214416504
            ],
            "min" : [
                -14.367932319641113,
                -24.098798751831055,
                -13.810601234436035
            ],
            "type" : "VEC3"
        },
        {
            "bufferView" : 1,
            "componentType" : 5126,
            "count" : 2514,
            "type" : "VEC3"
        },
        {
            "bufferView" : 2,
            "componentType" : 5126,
            "count" : 2514,
            "type" : "VEC2"
        },
        {
            "bufferView" : 3,
            "componentType" : 5123,
            "count" : 3768,
            "type" : "SCALAR"
        }
    ],
    "bufferViews" : [
        {
            "buffer" : 0,
            "byteLength" : 30168,
            "byteOffset" : 0
        },
        {
            "buffer" : 0,
            "byteLength" : 30168,
            "byteOffset" : 30168
        },
        {
            "buffer" : 0,
            "byteLength" : 20112,
            "byteOffset" : 60336
        },
        {
            "buffer" : 0,
            "byteLength" : 7536,
            "byteOffset" : 80448
        }
    ],
    "buffers" : [
        {
            "byteLength" : 87984,
            "uri" : "data:application/octet-stream;base64,"
        }
    ]
}
